<?xml version="1.0" encoding="UTF-8"?>
<svg width="98px" height="98px" viewBox="0 0 98 98" version="1.1" xmlns="http://www.w3.org/2000/svg" xmlns:xlink="http://www.w3.org/1999/xlink">
    <!-- Generator: Sketch 51 (57462) - http://www.bohemiancoding.com/sketch -->
    <title>Group 7</title>
    <desc>Created with Sketch.</desc>
    <defs></defs>
    <g id="Page-1" stroke="none" stroke-width="1" fill="none" fill-rule="evenodd">
        <g id="Group-7" transform="translate(1.000000, 1.000000)" fill-rule="nonzero" stroke="#000" stroke-width="2">
            <path d="M2.83333333,34 C1.26933333,34 0,32.7306667 0,31.1666667 L0,8.5 C0,3.81366667 3.81366667,0 8.5,0 L31.1666667,0 C32.7306667,0 34,1.26933333 34,2.83333333 C34,4.39733333 32.7306667,5.66666667 31.1666667,5.66666667 L8.5,5.66666667 C6.93883333,5.66666667 5.66666667,6.93883333 5.66666667,8.5 L5.66666667,31.1666667 C5.66666667,32.7306667 4.39733333,34 2.83333333,34 Z" id="Shape"></path>
            <path d="M87.5,96 L64.8333333,96 C63.2665,96 62,94.7335 62,93.1666667 C62,91.5998333 63.2665,90.3333333 64.8333333,90.3333333 L87.5,90.3333333 C89.064,90.3333333 90.3333333,89.064 90.3333333,87.5 L90.3333333,64.8333333 C90.3333333,63.2665 91.5998333,62 93.1666667,62 C94.7335,62 96,63.2665 96,64.8333333 L96,87.5 C96,92.1863333 92.1863333,96 87.5,96 Z" id="Shape"></path>
            <path d="M91.163576,94 C90.4376329,94 89.7116899,93.7220947 89.1587254,93.16912 L56.8315734,60.8413649 C55.7228089,59.7325796 55.7228089,57.9403742 56.8315734,56.831589 C57.940338,55.7228037 59.73251,55.7228037 60.8412746,56.831589 L93.1684266,89.159344 C94.2771911,90.2681293 94.2771911,92.0603347 93.1684266,93.16912 C92.6154621,93.7249305 91.889519,94 91.163576,94 Z" id="Shape"></path>
            <path d="M37.1646339,40 C36.4389616,40 35.7132893,39.7221984 35.1605311,39.1694299 L2.83126329,6.83955913 C1.72291224,5.73118741 1.72291224,3.93965051 2.83126329,2.83127879 C3.93961434,1.72290707 5.73111782,1.72290707 6.83946887,2.83127879 L39.1687367,35.1611495 C40.2770878,36.2695213 40.2770878,38.0610582 39.1687367,39.1694299 C38.6159785,39.7221984 37.8903062,40 37.1646339,40 Z" id="Shape"></path>
        </g>
    </g>
</svg>