<?xml version="1.0" encoding="UTF-8"?>
<svg width="76px" height="90px" viewBox="0 0 76 90" version="1.1" xmlns="http://www.w3.org/2000/svg" xmlns:xlink="http://www.w3.org/1999/xlink">
    <!-- Generator: Sketch 51 (57462) - http://www.bohemiancoding.com/sketch -->
    <title>Group 8</title>
    <desc>Created with Sketch.</desc>
    <defs></defs>
    <g id="Page-1" stroke="none" stroke-width="1" fill="none" fill-rule="evenodd">
        <g id="Group-8" transform="translate(1.000000, 0.000000)" fill-rule="nonzero" stroke="#FFFFFF" stroke-width="2">
            <path d="M36.6875,1 C36.4917262,1.03420792 36.3021438,1.09740207 36.125,1.1875 L1.125,18.0625 C0.44235643,18.3946465 0.00658444921,19.0846188 -2.33146835e-14,19.84375 L-2.15383267e-14,23.0625 C-0.0101954296,23.7837685 0.368756884,24.454654 0.991749872,24.8182635 C1.61474286,25.181873 2.38525714,25.181873 3.00825013,24.8182635 C3.63124312,24.454654 4.01019543,23.7837685 4,23.0625 L4,21.125 L37,5.1875 L70,21.125 L70,33.375 C70,56.2332 56.50036,75.73645 37,84.71875 C17.501062,75.73585 4,56.232 4,33.375 L4,31 C4.01019543,30.2787315 3.63124312,29.607846 3.00825013,29.2442365 C2.38525714,28.880627 1.61474286,28.880627 0.991749872,29.2442365 C0.368756884,29.607846 -0.0101954296,30.2787315 -2.33146835e-14,31 L-2.15383267e-14,33.375 C-2.15383267e-14,58.1556 14.830158,79.3917 36.1875,88.8125 C36.7047634,89.0424429 37.2952366,89.0424429 37.8125,88.8125 C59.171471,79.3923 74,58.1566 74,33.375 L74,19.84375 C73.9934156,19.0846188 73.5576436,18.3946465 72.875,18.0625 L37.875,1.1875 C37.507759,1.00470729 37.0931952,0.939249851 36.6875,1 Z M54.8125,30.96875 C54.3646168,31.0171732 53.9461946,31.2153732 53.625,31.53125 L32.03125,52.1875 L22.40625,42.5625 C21.9015909,42.0434645 21.1558639,41.8376246 20.4564119,42.0242945 C19.75696,42.2109643 19.2129627,42.761006 19.0340328,43.4624778 C18.8551029,44.1639496 19.06917,44.9073567 19.59375,45.40625 L30.59375,56.40625 C31.3606899,57.1650368 32.5912045,57.1788629 33.375,56.4375 L56.375,34.4375 C57.0162688,33.8548552 57.2094989,32.9255849 56.8536508,32.1356021 C56.4978027,31.3456194 55.6737953,30.8745641 54.8125,30.96875 Z" id="Shape"></path>
        </g>
    </g>
</svg>