<?xml version="1.0" encoding="UTF-8"?>
<svg width="90px" height="85px" viewBox="0 0 90 85" version="1.1" xmlns="http://www.w3.org/2000/svg" xmlns:xlink="http://www.w3.org/1999/xlink">
    <!-- Generator: Sketch 51 (57462) - http://www.bohemiancoding.com/sketch -->
    <title>Shape Copy 3</title>
    <desc>Created with Sketch.</desc>
    <defs></defs>
    <g id="Page-1" stroke="none" stroke-width="1" fill="none" fill-rule="evenodd">
        <path d="M38.7707521,80.2601176 L1.18639913,3.66576471 C0.907856695,3.0922133 0.943350739,2.41581173 1.2803921,1.87456296 C1.61743345,1.33331419 2.20879599,1.00305784 2.84639913,1 L15.8725168,1 C16.5706932,1 17.2249285,1.39058824 17.5325168,2.00576471 L44.981105,57.5718235 C47.4222815,62.5518235 54.5065756,62.5518235 56.9526344,57.5718235 L84.3133403,2.04970588 C84.6349,1.43025986 85.275407,1.04218802 85.9733403,1.04394118 L87.5942815,1.04394118 C88.556105,1.04394118 89.1663991,2.04970588 88.7318697,2.87970588 L50.7471638,80.265 C48.301105,85.245 41.2216932,85.245 38.7707521,80.265 L38.7707521,80.2601176 Z" id="Shape-Copy-3" stroke="#000" stroke-width="2" fill-rule="nonzero"></path>
    </g>
</svg>