<?xml version="1.0" encoding="UTF-8"?>
<svg width="342px" height="68px" viewBox="0 0 342 68" version="1.1" xmlns="http://www.w3.org/2000/svg" xmlns:xlink="http://www.w3.org/1999/xlink">
    <!-- Generator: Sketch 51.2 (57519) - http://www.bohemiancoding.com/sketch -->
    <title>VeNode.</title>
    <desc>Created with Sketch.</desc>
    <defs>
        <linearGradient x1="100.31271%" y1="110.317011%" x2="0%" y2="0%" id="linearGradient-1">
            <stop stop-color="#9D4ABE" offset="0%"></stop>
            <stop stop-color="#9055C4" offset="3%"></stop>
            <stop stop-color="#6B74D6" offset="15%"></stop>
            <stop stop-color="#4C8FE5" offset="26%"></stop>
            <stop stop-color="#34A3F0" offset="39%"></stop>
            <stop stop-color="#22B2F9" offset="52%"></stop>
            <stop stop-color="#18BAFD" offset="66%"></stop>
            <stop stop-color="#15BDFF" offset="83%"></stop>
            <stop stop-color="#28BAD5" offset="100%"></stop>
        </linearGradient>
    </defs>
    <g id="Page-1" stroke="none" stroke-width="1" fill="none" fill-rule="evenodd">
        <g id="logo-long" transform="translate(-79.000000, -65.000000)" fill="url(#linearGradient-1)">
            <path d="M108.670633,114.820051 L121.361612,68.496144 L138.516315,68.496144 L117.072937,132.125964 L100.26833,132.125964 L79,68.496144 L96.0234165,68.496144 L108.670633,114.820051 Z M165.38618,133 C158.121653,133 152.243017,130.836783 147.750096,126.510283 C143.257175,122.183783 141.010749,116.553591 141.010749,109.619537 L141.010749,108.395887 C141.010749,103.55953 141.907861,99.2913638 143.702111,95.5912596 C145.496362,91.8911554 148.114762,89.0287162 151.55739,87.003856 C155.000017,84.9789959 159.084429,83.966581 163.810749,83.966581 C170.462605,83.966581 175.713992,86.0278286 179.565067,90.1503856 C183.416142,94.2729426 185.341651,100.019672 185.341651,107.390746 L185.341651,113.115681 L156.021113,113.115681 C156.54626,115.766937 157.698648,117.850035 159.478311,119.365039 C161.257974,120.880042 163.56275,121.637532 166.392706,121.637532 C171.060676,121.637532 174.707472,120.006015 177.333205,116.742931 L184.072553,124.696658 C182.23454,127.231375 179.630727,129.248921 176.261036,130.749357 C172.891346,132.249793 169.26643,133 165.38618,133 Z M163.723225,95.3290488 C159.405353,95.3290488 156.838008,98.1842045 156.021113,103.894602 L170.900192,103.894602 L170.900192,102.758355 C170.958542,100.398446 170.360467,98.5702721 169.10595,97.2737789 C167.851433,95.9772857 166.057209,95.3290488 163.723225,95.3290488 Z M245.164299,132.125964 L229.891363,132.125964 L207.310173,92.5321337 L207.310173,132.125964 L191.949712,132.125964 L191.949712,68.496144 L207.310173,68.496144 L229.847601,108.089974 L229.847601,68.496144 L245.164299,68.496144 L245.164299,132.125964 Z M252.341267,108.046272 C252.341267,103.326455 253.26026,99.1238402 255.098273,95.4383033 C256.936286,91.7527665 259.576566,88.9194615 263.019194,86.9383033 C266.461821,84.9571452 270.502472,83.966581 275.141267,83.966581 C282.230746,83.966581 287.817638,86.1589327 291.902111,90.5437018 C295.986585,94.9284709 298.028791,100.893707 298.028791,108.439589 L298.028791,108.96401 C298.028791,116.335084 295.979291,122.183783 291.88023,126.510283 C287.78117,130.836783 282.230745,133 275.228791,133 C268.48941,133 263.077564,130.982454 258.99309,126.947301 C254.908617,122.912148 252.705952,117.442194 252.385029,110.537275 L252.341267,108.046272 Z M267.08906,108.96401 C267.08906,113.334212 267.774657,116.538979 269.145873,118.578406 C270.517089,120.617834 272.544708,121.637532 275.228791,121.637532 C280.480257,121.637532 283.164299,117.60244 283.280998,109.532134 L283.280998,108.046272 C283.280998,99.568081 280.567781,95.3290488 275.141267,95.3290488 C270.210724,95.3290488 267.541269,98.9853962 267.132821,106.298201 L267.08906,108.96401 Z M302.667562,108.133676 C302.667562,100.646064 304.28674,94.7463797 307.525144,90.4344473 C310.763548,86.1225149 315.285576,83.966581 321.091363,83.966581 C325.32171,83.966581 328.880984,85.6272328 331.76929,88.9485861 L331.76929,65 L346.560845,65 L346.560845,132.125964 L333.30096,132.125964 L332.557006,127.056555 C329.522826,131.018872 325.671808,133 321.003839,133 C315.3731,133 310.909421,130.844066 307.612668,126.532134 C304.315914,122.220201 302.667562,116.087443 302.667562,108.133676 Z M317.415355,109.051414 C317.415355,117.442201 319.866002,121.637532 324.76737,121.637532 C328.034949,121.637532 330.368899,120.268223 331.76929,117.529563 L331.76929,99.5244216 C330.427249,96.7274924 328.122473,95.3290488 324.854894,95.3290488 C320.303624,95.3290488 317.83839,98.9999633 317.459117,106.341902 L317.415355,109.051414 Z M377.850672,133 C370.586144,133 364.707508,130.836783 360.214587,126.510283 C355.721667,122.183783 353.47524,116.553591 353.47524,109.619537 L353.47524,108.395887 C353.47524,103.55953 354.372352,99.2913638 356.166603,95.5912596 C357.960854,91.8911554 360.579253,89.0287162 364.021881,87.003856 C367.464509,84.9789959 371.548921,83.966581 376.27524,83.966581 C382.927097,83.966581 388.178484,86.0278286 392.029559,90.1503856 C395.880633,94.2729426 397.806142,100.019672 397.806142,107.390746 L397.806142,113.115681 L368.485605,113.115681 C369.010751,115.766937 370.163139,117.850035 371.942802,119.365039 C373.722466,120.880042 376.027241,121.637532 378.857198,121.637532 C383.525167,121.637532 387.171964,120.006015 389.797697,116.742931 L396.537044,124.696658 C394.699031,127.231375 392.095218,129.248921 388.725528,130.749357 C385.355837,132.249793 381.730922,133 377.850672,133 Z M376.187716,95.3290488 C371.869844,95.3290488 369.302499,98.1842045 368.485605,103.894602 L383.364683,103.894602 L383.364683,102.758355 C383.423033,100.398446 382.824958,98.5702721 381.570441,97.2737789 C380.315925,95.9772857 378.521701,95.3290488 376.187716,95.3290488 Z M412.860269,117.835476 C415.194254,117.835476 417.134349,118.527414 418.680614,119.911311 C420.226879,121.295208 421,123.065113 421,125.22108 C421,127.377046 420.226879,129.146951 418.680614,130.530848 C417.134349,131.914746 415.194254,132.606684 412.860269,132.606684 C410.497109,132.606684 408.54972,131.907462 407.018042,130.508997 C405.486365,129.110533 404.720537,127.347911 404.720537,125.22108 C404.720537,123.094248 405.486365,121.331627 407.018042,119.933162 C408.54972,118.534697 410.497109,117.835476 412.860269,117.835476 Z" id="VeNode."></path>
        </g>
    </g>
</svg>