<?xml version="1.0" encoding="UTF-8"?>
<svg width="205px" height="205px" viewBox="0 0 205 205" version="1.1" xmlns="http://www.w3.org/2000/svg" xmlns:xlink="http://www.w3.org/1999/xlink">
    <!-- Generator: Sketch 51 (57462) - http://www.bohemiancoding.com/sketch -->
    <title>Group 5 Copy 2</title>
    <desc>Created with Sketch.</desc>
    <defs>
        <radialGradient cx="93.0453043%" cy="61.4272513%" fx="93.0453043%" fy="61.4272513%" r="100.000471%" id="radialGradient-1">
            <stop stop-color="#9D4ABE" offset="0%"></stop>
            <stop stop-color="#9055C4" offset="3%"></stop>
            <stop stop-color="#6B74D6" offset="15%"></stop>
            <stop stop-color="#4C8FE5" offset="26%"></stop>
            <stop stop-color="#34A3F0" offset="39%"></stop>
            <stop stop-color="#22B2F9" offset="51.7002348%"></stop>
            <stop stop-color="#18BAFD" offset="67.0813764%"></stop>
            <stop stop-color="#15BDFF" offset="83%"></stop>
            <stop stop-color="#28BAD5" offset="100%"></stop>
        </radialGradient>
    </defs>
    <g id="Page-1" stroke="none" stroke-width="1" fill="none" fill-rule="evenodd">
        <g id="Group-5-Copy-2">
            <circle id="Oval-3" fill="url(#radialGradient-1)" fill-rule="nonzero" cx="103" cy="103" r="83"></circle>
            <path d="M102.5,205 C45.8908131,205 0,159.109187 0,102.5 C0,45.8908131 45.8908131,0 102.5,0 C159.109187,0 205,45.8908131 205,102.5 C205,159.109187 159.109187,205 102.5,205 Z M36.9588235,109.384615 L31.0088235,89 L23,89 L33.0058824,117 L40.9117647,117 L51,89 L42.9294118,89 L36.9588235,109.384615 Z M63.5468904,117 C65.3850043,117 67.1021638,116.663402 68.6984205,115.990196 C70.2946773,115.31699 71.5281299,114.41177 72.3988154,113.27451 L69.2063179,109.705882 C67.9624814,111.169942 66.2349568,111.901961 64.023692,111.901961 C62.6831127,111.901961 61.5913171,111.562095 60.7482725,110.882353 C59.9052278,110.202611 59.35933,109.26798 59.1105627,108.078431 L73,108.078431 L73,105.509804 C73,102.202598 72.087867,99.6241923 70.2635735,97.7745098 C68.4392801,95.9248274 65.9516446,95 62.8005923,95 C60.5616867,95 58.6268591,95.4542438 56.9960513,96.3627451 C55.3652436,97.2712464 54.1248809,98.5555473 53.274926,100.215686 C52.4249711,101.875825 52,103.790839 52,105.960784 L52,106.509804 C52,109.620931 53.0641552,112.147049 55.1924975,114.088235 C57.3208399,116.029421 60.1056096,117 63.5468904,117 Z M62.6225823,100 C63.72034,100 64.5642286,100.302718 65.1542734,100.908163 C65.7443181,101.513608 66.0256143,102.367341 65.9981704,103.469388 L65.9981704,104 L59,104 C59.3842152,101.33332 60.5917306,100 62.6225823,100 Z M101,117 L101,89 L93.8042763,89 L93.8042763,106.423077 L83.2162829,89 L76,89 L76,117 L83.2162829,117 L83.2162829,99.5769231 L93.8248355,117 L101,117 Z M105,105.803922 L105.021073,106.921569 C105.175607,110.019623 106.236261,112.473847 108.203065,114.284314 C110.169869,116.09478 112.775846,117 116.021073,117 C119.392737,117 122.065444,116.029421 124.039272,114.088235 C126.013101,112.147049 127,109.522892 127,106.215686 L127,105.980392 C127,102.594754 126.016613,99.9183105 124.049808,97.9509804 C122.083004,95.9836503 119.392737,95 115.978927,95 C113.7452,95 111.799497,95.44444 110.141762,96.3333333 C108.484027,97.2222267 107.212648,98.4934558 106.327586,100.147059 C105.442524,101.800662 105,103.686264 105,105.803922 Z M112,105.700997 L112.021622,104.586379 C112.223424,101.528778 113.54233,100 115.978378,100 C118.659473,100 120,101.772408 120,105.317276 L120,105.938538 C119.942342,109.312863 118.616229,111 116.021622,111 C114.695489,111 113.693697,110.573648 113.016216,109.72093 C112.338735,108.868213 112,107.528248 112,105.700997 Z M128,106.029563 C128,109.538578 128.788626,112.244206 130.365902,114.14653 C131.943178,116.048853 134.07875,117 136.772682,117 C139.005993,117 140.848447,116.125973 142.3001,114.377892 L142.656032,116.614396 L149,116.614396 L149,87 L141.92323,87 L141.92323,97.5655527 C140.541369,96.1002497 138.838495,95.3676093 136.814556,95.3676093 C134.036875,95.3676093 131.873388,96.3187566 130.324028,98.2210797 C128.774668,100.123403 128,102.726205 128,106.029563 Z M135,105.737542 L135.021341,104.604651 C135.206302,101.534868 136.408525,100 138.628049,100 C140.221553,100 141.345525,100.584712 142,101.754153 L142,109.282392 C141.31707,110.42747 140.17887,111 138.585366,111 C136.19511,111 135,109.245865 135,105.737542 Z M163.54689,117 C165.385004,117 167.102164,116.663402 168.698421,115.990196 C170.294677,115.31699 171.52813,114.41177 172.398815,113.27451 L169.206318,109.705882 C167.962481,111.169942 166.234957,111.901961 164.023692,111.901961 C162.683113,111.901961 161.591317,111.562095 160.748272,110.882353 C159.905228,110.202611 159.35933,109.26798 159.110563,108.078431 L173,108.078431 L173,105.509804 C173,102.202598 172.087867,99.6241923 170.263574,97.7745098 C168.43928,95.9248274 165.951645,95 162.800592,95 C160.561687,95 158.626859,95.4542438 156.996051,96.3627451 C155.365244,97.2712464 154.124881,98.5555473 153.274926,100.215686 C152.424971,101.875825 152,103.790839 152,105.960784 L152,106.509804 C152,109.620931 153.064155,112.147049 155.192498,114.088235 C157.32084,116.029421 160.10561,117 163.54689,117 Z M162.622582,100 C163.72034,100 164.564229,100.302718 165.154273,100.908163 C165.744318,101.513608 166.025614,102.367341 165.99817,103.469388 L165.99817,104 L159,104 C159.384215,101.33332 160.591731,100 162.622582,100 Z M180,110 C178.838704,110 177.881724,110.331358 177.129032,110.994083 C176.37634,111.656808 176,112.492105 176,113.5 C176,114.507895 176.37634,115.343192 177.129032,116.005917 C177.881724,116.668642 178.838704,117 180,117 C181.146959,117 182.100355,116.672094 182.860215,116.016272 C183.620075,115.36045 184,114.521701 184,113.5 C184,112.478299 183.620075,111.63955 182.860215,110.983728 C182.100355,110.327906 181.146959,110 180,110 Z" id="Combined-Shape" fill="#FFFFFF"></path>
        </g>
    </g>
</svg>